<?xml version="1.0" encoding="utf-8"?>
<!-- Generator: Adobe Illustrator 19.2.0, SVG Export Plug-In . SVG Version: 6.00 Build 0)  -->
<svg version="1.1" id="Layer_1" xmlns="http://www.w3.org/2000/svg" xmlns:xlink="http://www.w3.org/1999/xlink" x="0px" y="0px"
	 viewBox="0 0 32 32" style="enable-background:new 0 0 32 32;" xml:space="preserve">
<style type="text/css">
	.st0{clip-path:url(#SVGID_2_);fill:#F4587A;}
	.st1{clip-path:url(#SVGID_2_);fill:#FFFFFF;}
</style>
<g>
	<defs>
		<rect id="SVGID_1_" width="32" height="32"/>
	</defs>
	<clipPath id="SVGID_2_">
		<use xlink:href="#SVGID_1_"  style="overflow:visible;"/>
	</clipPath>
	<path class="st0" d="M16,0C11.7,0,7.7,1.7,4.7,4.7c-3,3-4.7,7-4.7,11.3s1.7,8.3,4.7,11.3c3,3,7,4.7,11.3,4.7s8.3-1.7,11.3-4.7
		S32,20.3,32,16s-1.7-8.3-4.7-11.3C24.3,1.7,20.3,0,16,0"/>
	<rect x="17.1" y="8.4" transform="matrix(0.7071 -0.7071 0.7071 0.7071 -4.6491 17.6388)" class="st1" width="3.7" height="12"/>
	<rect x="7" y="12.5" transform="matrix(0.7071 -0.7071 0.7071 0.7071 -6.3419 13.4235)" class="st1" width="12" height="3.7"/>
</g>
</svg>
