<svg id="Layer_1" data-name="Layer 1" xmlns="http://www.w3.org/2000/svg" viewBox="0 0 75 100"><defs><style>.cls-1{fill:#00c7b2;}.cls-2{fill:#1e1e1e;}</style></defs><title>contact_survey</title><path class="cls-1" d="M415.87,259.5h-9.72a6,6,0,1,0-11.3,0h-9.72l-3.14,11h37Z" transform="translate(-363 -250)"/><rect class="cls-1" x="8" y="18" width="58" height="74"/><path class="cls-2" d="M384,279v5h-5v-5h5m3-3H376v11h11V276Z" transform="translate(-363 -250)"/><path class="cls-2" d="M384,296v5h-5v-5h5m3-3H376v11h11V293Z" transform="translate(-363 -250)"/><path class="cls-2" d="M384,313v5h-5v-5h5m3-3H376v11h11V310Z" transform="translate(-363 -250)"/><path class="cls-2" d="M384,330v5h-5v-5h5m3-3H376v11h11V327Z" transform="translate(-363 -250)"/><rect class="cls-2" x="27" y="32" width="29" height="2"/><rect class="cls-2" x="27" y="45" width="31" height="2"/><rect class="cls-2" x="27" y="49" width="26" height="2"/><rect class="cls-2" x="27" y="62" width="31" height="2"/><rect class="cls-2" x="27" y="66" width="29" height="2"/><rect class="cls-2" x="27" y="79" width="29" height="2"/><rect class="cls-2" x="27" y="83" width="30" height="2"/><rect class="cls-2" x="27" y="28" width="29" height="2"/><path class="cls-2" d="M432.13,259H417.29l-.29-1h-9c0-.17,0-.33,0-.5a7.5,7.5,0,0,0-15,0c0,.17,0,.33,0,.5h-9l-.29,1H368.87a5.87,5.87,0,0,0-5.87,5.87v79.27a5.87,5.87,0,0,0,5.87,5.87h63.27a5.87,5.87,0,0,0,5.87-5.87V264.87A5.87,5.87,0,0,0,432.13,259Zm-31.63-6a4.5,4.5,0,1,1-4.5,4.5A4.51,4.51,0,0,1,400.5,253Zm-14.24,8h7.61a7.5,7.5,0,0,0,13.26,0h7.61l2.29,8H384ZM435,344.13a2.87,2.87,0,0,1-2.87,2.87H368.87a2.87,2.87,0,0,1-2.87-2.87V264.87a2.87,2.87,0,0,1,2.87-2.87h14L380,272h41l-2.86-10h14a2.87,2.87,0,0,1,2.87,2.87Z" transform="translate(-363 -250)"/></svg>