<?xml version="1.0" encoding="UTF-8"?>
<svg width="503px" height="311px" viewBox="0 0 503 311" version="1.1" xmlns="http://www.w3.org/2000/svg" xmlns:xlink="http://www.w3.org/1999/xlink">
    <!-- Generator: Sketch 41 (35326) - http://www.bohemiancoding.com/sketch -->
    <title>logo_rev</title>
    <desc>Created with Sketch.</desc>
    <defs></defs>
    <g id="Page-1" stroke="none" stroke-width="1" fill="none" fill-rule="evenodd">
        <g id="logo_rev">
            <g id="Group">
                <path d="M104.5,74.3 C100.1,69.4 96.8,63.3 95.4,56.3 C93.9,49.4 94.4,42.5 96.4,36.2 C92.6,24.6 87.6,13.7 81.7,3.4 C71.9,0.4 61.1,-0.3 50.3,2 C16.5,9.2 -5,42.4 2.2,76.1 C9.4,109.9 42.6,131.4 76.3,124.2 C87.1,121.9 96.6,117 104.4,110.2 C105.7,98.5 105.8,86.5 104.5,74.3 Z M71.5,101.4 C50.4,105.9 29.7,92.4 25.2,71.3 C20.7,50.2 34.2,29.5 55.3,25 C62.2,23.5 69,24 75.3,26 C72.5,33.4 71,41.4 71.2,49.7 C68,47.8 64.1,47.1 60.2,48 C51.8,49.8 46.4,58.1 48.2,66.5 C50,74.9 58.3,80.3 66.7,78.5 C70.6,77.7 73.9,75.4 76.1,72.4 C79.3,80 83.9,86.7 89.5,92.4 C84.4,96.7 78.3,99.9 71.5,101.4 Z" id="Shape" fill="#00ADD0"></path>
                <g transform="translate(1.000000, 129.000000)" id="Shape" fill="#FFFFFF">
                    <path d="M0,51.4 C0,35.6 12.1,23.4 28.2,23.4 C38.7,23.4 47.8,28.8 52.3,37.1 L37.3,45.8 C35.6,42.7 32.2,40.6 28.1,40.6 C22.2,40.6 17.7,45 17.7,51.4 C17.7,57.8 22.1,62.2 28.1,62.2 C32.2,62.2 35.7,60.1 37.3,56.9 L52.3,65.6 C47.7,74 38.6,79.4 28.2,79.4 C12.1,79.3 0,67.1 0,51.4 Z"></path>
                    <path d="M53.3,51.4 C53.3,35.6 65.9,23.4 81.6,23.4 C97.4,23.4 109.9,35.6 109.9,51.4 C109.9,67.2 97.4,79.4 81.6,79.4 C66,79.3 53.3,67.1 53.3,51.4 Z M92.2,51.4 C92.2,44.8 87.6,40.4 81.5,40.4 C75.5,40.4 70.9,44.8 70.9,51.4 C70.9,58 75.5,62.4 81.5,62.4 C87.7,62.4 92.2,57.9 92.2,51.4 Z"></path>
                    <path d="M167.2,46.2 L167.2,77.9 L149.6,77.9 L149.6,48.5 C149.6,42.8 146.2,40.1 141.7,40.1 C136.3,40.1 133,43.4 133,49.7 L133,77.9 L115.4,77.9 L115.4,24.9 L133,24.9 L133,30.2 C136,26 141.2,23.4 147.7,23.4 C158.6,23.4 167.2,30.9 167.2,46.2 Z"></path>
                    <path d="M172.7,51.4 C172.7,35.6 184.8,23.4 200.9,23.4 C211.4,23.4 220.5,28.8 225,37.1 L210,45.8 C208.3,42.7 204.9,40.6 200.8,40.6 C194.9,40.6 190.4,45 190.4,51.4 C190.4,57.8 194.8,62.2 200.8,62.2 C204.9,62.2 208.4,60.1 210,56.9 L225,65.6 C220.4,74 211.3,79.4 200.9,79.4 C184.8,79.3 172.7,67.1 172.7,51.4 Z"></path>
                    <path d="M256.2,64.3 C260,64.3 263.3,63 265.8,60.6 L278.5,69.5 C273.2,76.2 265.2,79.3 255.7,79.3 C237.4,79.3 226,67.1 226,51.4 C226,35.5 237.7,23.3 254.2,23.3 C270.1,23.3 281.5,35.3 281.5,51.2 C281.5,53.4 281.3,55.5 280.8,57.8 L244.3,57.8 C246.4,62.9 251.1,64.3 256.2,64.3 Z M264.4,45.6 C262.8,40.1 258.7,38.2 254.4,38.2 C249.3,38.2 245.5,40.7 244,45.6 L264.4,45.6 Z"></path>
                    <path d="M339,46.2 L339,77.9 L321.4,77.9 L321.4,48.5 C321.4,42.8 318,40.1 313.5,40.1 C308.1,40.1 304.8,43.4 304.8,49.7 L304.8,77.9 L287.2,77.9 L287.2,24.9 L304.8,24.9 L304.8,30.2 C307.8,26 313,23.4 319.5,23.4 C330.4,23.4 339,30.9 339,46.2 Z"></path>
                    <path d="M368.4,41.7 L368.4,57.1 C368.4,62.1 372.3,62.4 379.4,62 L379.4,77.9 C357.8,80.5 350.8,73.9 350.8,57.6 L350.8,41.8 L342.9,41.8 L342.9,25 L350.8,25 L350.8,15.5 L368.4,10.2 L368.4,25 L379.4,25 L379.4,41.8 L368.4,41.8 L368.4,41.7 Z"></path>
                    <path d="M420.8,23.8 L420.8,43.3 C413.8,42.2 404.9,45.4 404.9,55.9 L404.9,77.8 L387.3,77.8 L387.3,24.8 L404.9,24.8 L404.9,34.7 C407,27.5 413.7,23.8 420.8,23.8 Z"></path>
                    <path d="M425.1,10.4 C425.1,4.9 429.8,0.3 435.3,0.3 C440.8,0.3 445.5,4.9 445.5,10.4 C445.5,15.9 440.8,20.6 435.3,20.6 C429.8,20.5 425.1,15.9 425.1,10.4 Z M426.5,24.9 L444.1,24.9 L444.1,77.9 L426.5,77.9 L426.5,24.9 Z"></path>
                    <path d="M449.5,51.4 C449.5,35.6 461.6,23.4 477.7,23.4 C488.2,23.4 497.3,28.8 501.8,37.1 L486.8,45.8 C485.1,42.7 481.7,40.6 477.6,40.6 C471.7,40.6 467.2,45 467.2,51.4 C467.2,57.8 471.6,62.2 477.6,62.2 C481.7,62.2 485.2,60.1 486.8,56.9 L501.8,65.6 C497.2,74 488.1,79.4 477.7,79.4 C461.6,79.3 449.5,67.1 449.5,51.4 Z"></path>
                </g>
                <g transform="translate(1.000000, 210.000000)" id="Shape" fill="#FFFFFF">
                    <path d="M57.5,3.8 L57.5,77.9 L39.9,77.9 L39.9,73 C36.5,77 31.6,79.4 24.9,79.4 C10.7,79.4 0,67.3 0,51.4 C0,35.5 10.7,23.4 24.9,23.4 C31.7,23.4 36.6,25.7 39.9,29.8 L39.9,3.7 L57.5,3.7 L57.5,3.8 Z M39.9,51.4 C39.9,44.5 35.3,39.9 28.8,39.9 C22.3,39.9 17.7,44.6 17.7,51.4 C17.7,58.3 22.3,62.9 28.8,62.9 C35.3,62.9 39.9,58.3 39.9,51.4 Z"></path>
                    <path d="M93.3,64.4 C97.1,64.4 100.4,63.1 102.9,60.7 L115.6,69.6 C110.3,76.3 102.3,79.4 92.8,79.4 C74.5,79.4 63.1,67.2 63.1,51.5 C63.1,35.6 74.8,23.4 91.3,23.4 C107.2,23.4 118.6,35.4 118.6,51.3 C118.6,53.5 118.4,55.6 117.9,57.9 L81.4,57.9 C83.5,63 88.2,64.4 93.3,64.4 Z M101.5,45.7 C99.9,40.2 95.8,38.3 91.5,38.3 C86.4,38.3 82.6,40.8 81.1,45.7 L101.5,45.7 Z"></path>
                    <path d="M167.1,61.6 C167.1,74.8 155,79.4 144.2,79.4 C133.1,79.4 124.7,75.8 120.5,66.8 L135.9,59.1 C137.3,63 140,64.9 144.2,64.9 C147.3,64.9 149,63.9 149,62 C149,56.5 123.2,60 123.2,41.2 C123.2,29.2 133.7,23.4 144.5,23.4 C154,23.4 162,27 166.3,35.7 L151.5,42.4 C150,39.4 147.9,37.8 144.9,37.8 C142.5,37.8 141,38.8 141,40.3 C140.8,46.3 167.1,41.5 167.1,61.6 Z"></path>
                    <path d="M171.9,10.5 C171.9,5 176.6,0.4 182.1,0.4 C187.6,0.4 192.3,5 192.3,10.5 C192.3,16 187.6,20.7 182.1,20.7 C176.5,20.6 171.9,16 171.9,10.5 Z M173.3,25 L190.9,25 L190.9,78 L173.3,78 L173.3,25 Z"></path>
                    <path d="M254.1,25 L254.1,75.8 C254.1,93.5 240.1,100.7 226.2,100.7 C214.7,100.7 204.9,96.4 200.1,87.8 L214.7,79.3 C217,83 220.2,85.3 225.9,85.3 C231.8,85.3 236.6,82.3 236.6,75.8 L236.6,70.7 C233.2,74.8 228.3,77.3 221.8,77.3 C207.1,77.3 196.6,65.1 196.6,50.4 C196.6,35.7 207.1,23.5 221.8,23.5 C228.4,23.5 233.2,25.9 236.6,30.1 L236.6,25 L254.1,25 Z M236.7,50.4 C236.7,44 232.1,39.4 225.5,39.4 C218.8,39.4 214.3,44.1 214.3,50.4 C214.3,56.7 218.9,61.4 225.5,61.4 C232.1,61.4 236.7,56.7 236.7,50.4 Z"></path>
                    <path d="M314,46.3 L314,78 L296.4,78 L296.4,48.6 C296.4,42.9 293,40.2 288.5,40.2 C283.1,40.2 279.8,43.5 279.8,49.8 L279.8,78 L262.2,78 L262.2,25 L279.8,25 L279.8,30.3 C282.8,26.1 288,23.5 294.5,23.5 C305.4,23.5 314,31 314,46.3 Z"></path>
                </g>
            </g>
        </g>
    </g>
</svg>