<?xml version="1.0" encoding="utf-8"?>
<!-- Generator: Adobe Illustrator 21.0.0, SVG Export Plug-In . SVG Version: 6.00 Build 0)  -->
<svg version="1.1" id="Layer_1" xmlns="http://www.w3.org/2000/svg" xmlns:xlink="http://www.w3.org/1999/xlink" x="0px" y="0px"
	 viewBox="0 0 502 310" style="enable-background:new 0 0 502 310;" xml:space="preserve">
<style type="text/css">
	.st0{fill:#00ADD0;}
	.st1{fill:#1E1E1E;}
</style>
<g>
	<path class="st0" d="M103.7,73.7c-4.4-4.9-7.7-11-9.1-18c-1.5-6.9-1-13.8,1-20.1C91.8,24,86.8,13,80.9,2.8
		c-9.8-3-20.6-3.7-31.4-1.4C15.8,8.6-5.8,41.7,1.4,75.5s40.4,55.3,74.1,48.1c10.8-2.3,20.3-7.2,28.1-14
		C104.8,97.8,104.9,85.8,103.7,73.7z M70.6,100.7c-21.1,4.5-41.8-9-46.3-30.1c-4.5-21.1,9-41.8,30.1-46.3c6.9-1.5,13.7-1,20,1
		c-2.8,7.4-4.3,15.4-4.1,23.7c-3.2-1.9-7.1-2.6-11-1.7c-8.4,1.8-13.8,10.1-12,18.5c1.8,8.4,10.1,13.8,18.5,12
		c3.9-0.8,7.2-3.1,9.4-6.1c3.2,7.6,7.8,14.3,13.4,20C83.6,96,77.5,99.2,70.6,100.7z"/>
	<g>
		<path class="st1" d="M0.1,179.7c0-15.8,12.1-28,28.2-28c10.5,0,19.6,5.4,24.1,13.7l-15,8.7c-1.7-3.1-5.1-5.2-9.2-5.2
			c-5.9,0-10.4,4.4-10.4,10.8s4.4,10.8,10.4,10.8c4.1,0,7.6-2.1,9.2-5.3l15,8.7c-4.6,8.4-13.7,13.8-24.1,13.8
			C12.2,207.7,0.1,195.5,0.1,179.7z"/>
		<path class="st1" d="M53.4,179.7c0-15.8,12.6-28,28.3-28c15.8,0,28.3,12.2,28.3,28c0,15.8-12.5,28-28.3,28
			C66.1,207.7,53.4,195.5,53.4,179.7z M92.4,179.7c0-6.6-4.6-11-10.7-11c-6,0-10.6,4.4-10.6,11s4.6,11,10.6,11
			C87.8,190.7,92.4,186.3,92.4,179.7z"/>
		<path class="st1" d="M167.4,174.5v31.7h-17.6v-29.4c0-5.7-3.4-8.4-7.9-8.4c-5.4,0-8.7,3.3-8.7,9.6v28.2h-17.6v-53h17.6v5.3
			c3-4.2,8.2-6.8,14.7-6.8C158.8,151.7,167.4,159.3,167.4,174.5z"/>
		<path class="st1" d="M172.9,179.7c0-15.8,12.1-28,28.2-28c10.5,0,19.6,5.4,24.1,13.7l-15,8.7c-1.7-3.1-5.1-5.2-9.2-5.2
			c-5.9,0-10.4,4.4-10.4,10.8s4.4,10.8,10.4,10.8c4.1,0,7.6-2.1,9.2-5.3l15,8.7c-4.6,8.4-13.7,13.8-24.1,13.8
			C185,207.7,172.9,195.5,172.9,179.7z"/>
		<path class="st1" d="M256.4,192.6c3.8,0,7.1-1.3,9.6-3.7l12.7,8.9c-5.3,6.7-13.3,9.8-22.8,9.8c-18.3,0-29.7-12.2-29.7-27.9
			c0-15.9,11.7-28.1,28.2-28.1c15.9,0,27.3,12,27.3,27.9c0,2.2-0.2,4.3-0.7,6.6h-36.5C246.6,191.2,251.3,192.6,256.4,192.6z
			 M264.6,174c-1.6-5.5-5.7-7.4-10-7.4c-5.1,0-8.9,2.5-10.4,7.4H264.6z"/>
		<path class="st1" d="M339.2,174.5v31.7h-17.6v-29.4c0-5.7-3.4-8.4-7.9-8.4c-5.4,0-8.7,3.3-8.7,9.6v28.2h-17.6v-53H305v5.3
			c3-4.2,8.2-6.8,14.7-6.8C330.6,151.7,339.2,159.3,339.2,174.5z"/>
		<path class="st1" d="M368.5,170.1v15.4c0,5,3.9,5.3,11,4.9v15.9c-21.6,2.6-28.6-4-28.6-20.3v-15.8H343v-16.8h7.9v-9.5l17.6-5.3
			v14.8h11v16.8H368.5z"/>
		<path class="st1" d="M420.9,152.2v19.5c-7-1.1-15.9,2.1-15.9,12.6v21.9h-17.6v-53h17.6v9.9C407.2,155.9,413.9,152.2,420.9,152.2z"
			/>
		<path class="st1" d="M425.3,138.7c0-5.5,4.7-10.1,10.2-10.1c5.5,0,10.2,4.6,10.2,10.1c0,5.5-4.7,10.2-10.2,10.2
			C430,148.9,425.3,144.2,425.3,138.7z M426.7,153.2h17.6v53h-17.6V153.2z"/>
		<path class="st1" d="M449.7,179.7c0-15.8,12.1-28,28.2-28c10.5,0,19.6,5.4,24.1,13.7l-15,8.7c-1.7-3.1-5.1-5.2-9.2-5.2
			c-5.9,0-10.4,4.4-10.4,10.8s4.4,10.8,10.4,10.8c4.1,0,7.6-2.1,9.2-5.3l15,8.7c-4.6,8.4-13.7,13.8-24.1,13.8
			C461.7,207.7,449.7,195.5,449.7,179.7z"/>
	</g>
	<g>
		<path class="st1" d="M57.7,213.1v74.1H40.1v-4.9c-3.4,4-8.3,6.4-15,6.4c-14.2,0-24.9-12.1-24.9-28s10.7-28,24.9-28
			c6.8,0,11.7,2.3,15,6.4v-26.1H57.7z M40.1,260.8c0-6.9-4.6-11.5-11.1-11.5s-11.1,4.7-11.1,11.5c0,6.9,4.6,11.5,11.1,11.5
			S40.1,267.7,40.1,260.8z"/>
		<path class="st1" d="M93.5,273.7c3.8,0,7.1-1.3,9.6-3.7l12.7,8.9c-5.3,6.7-13.3,9.8-22.8,9.8c-18.3,0-29.7-12.2-29.7-27.9
			c0-15.9,11.7-28.1,28.2-28.1c15.9,0,27.3,12,27.3,27.9c0,2.2-0.2,4.3-0.7,6.6H81.6C83.7,272.3,88.4,273.7,93.5,273.7z
			 M101.7,255.1c-1.6-5.5-5.7-7.4-10-7.4c-5.1,0-8.9,2.5-10.4,7.4H101.7z"/>
		<path class="st1" d="M167.3,270.9c0,13.2-12.1,17.8-22.9,17.8c-11.1,0-19.5-3.6-23.7-12.6l15.4-7.7c1.4,3.9,4.1,5.8,8.3,5.8
			c3.1,0,4.8-1,4.8-2.9c0-5.5-25.8-2-25.8-20.8c0-12,10.5-17.8,21.3-17.8c9.5,0,17.5,3.6,21.8,12.3l-14.8,6.7
			c-1.5-3-3.6-4.6-6.6-4.6c-2.4,0-3.9,1-3.9,2.5C141,255.6,167.3,250.8,167.3,270.9z"/>
		<path class="st1" d="M172,219.8c0-5.5,4.7-10.1,10.2-10.1c5.5,0,10.2,4.6,10.2,10.1c0,5.5-4.7,10.2-10.2,10.2
			C176.7,230,172,225.3,172,219.8z M173.4,234.3H191v53h-17.6V234.3z"/>
		<path class="st1" d="M254.2,234.3v50.8c0,17.7-14,24.9-27.9,24.9c-11.5,0-21.3-4.3-26.1-12.9l14.6-8.5c2.3,3.7,5.5,6,11.2,6
			c5.9,0,10.7-3,10.7-9.5v-5.1c-3.4,4.1-8.3,6.6-14.8,6.6c-14.7,0-25.2-12.2-25.2-26.9c0-14.7,10.5-26.9,25.2-26.9
			c6.6,0,11.4,2.4,14.8,6.6v-5.1H254.2z M236.9,259.7c0-6.4-4.6-11-11.2-11c-6.7,0-11.2,4.7-11.2,11c0,6.4,4.6,11,11.2,11
			C232.3,270.7,236.9,266.1,236.9,259.7z"/>
		<path class="st1" d="M314.2,255.6v31.7h-17.6v-29.4c0-5.7-3.4-8.4-7.9-8.4c-5.4,0-8.7,3.3-8.7,9.6v28.2h-17.6v-53H280v5.3
			c3-4.2,8.2-6.8,14.7-6.8C305.6,232.8,314.2,240.3,314.2,255.6z"/>
	</g>
</g>
</svg>
