<svg id="Layer_1" data-name="Layer 1" xmlns="http://www.w3.org/2000/svg" viewBox="0 0 142.14 37.35"><defs><style>.cls-1{fill:#00add0;}.cls-2{fill:#1e1e1e;}</style></defs><title>concentric_design_mobile</title><path class="cls-1" d="M389.21,69a11.68,11.68,0,0,1-2.42-11.38,52.19,52.19,0,0,0-4.4-9.8,18.67,18.67,0,1,0,6.79,31.92A52.19,52.19,0,0,0,389.21,69Zm-9.89,8.08a11.67,11.67,0,1,1,1.12-22.53,18.56,18.56,0,0,0-1.22,7.07,4.67,4.67,0,1,0,1.44,6.79,18.56,18.56,0,0,0,4,6A11.62,11.62,0,0,1,379.32,77.08Z" transform="translate(-358.22 -46.99)"/><path class="cls-2" d="M400.76,57.79A5.59,5.59,0,0,1,411.14,55l-3,1.72a2.11,2.11,0,1,0-1.83,3.26,2,2,0,0,0,1.83-1.05l3,1.72a5.39,5.39,0,0,1-4.79,2.73A5.46,5.46,0,0,1,400.76,57.79Z" transform="translate(-358.22 -46.99)"/><path class="cls-2" d="M411.33,57.79a5.61,5.61,0,1,1,5.61,5.55A5.53,5.53,0,0,1,411.33,57.79Zm7.74,0A2.11,2.11,0,1,0,416.94,60,2.07,2.07,0,0,0,419.07,57.79Z" transform="translate(-358.22 -46.99)"/><path class="cls-2" d="M433.95,56.76V63h-3.49V57.21a1.48,1.48,0,0,0-1.58-1.66c-1.07,0-1.72.65-1.72,1.91V63h-3.49V52.54h3.49v1.05a3.43,3.43,0,0,1,2.92-1.35C432.25,52.24,433.95,53.74,433.95,56.76Z" transform="translate(-358.22 -46.99)"/><path class="cls-2" d="M435,57.79A5.59,5.59,0,0,1,445.43,55l-3,1.72a2.11,2.11,0,1,0-1.83,3.26,2,2,0,0,0,1.83-1.05l3,1.72a5.39,5.39,0,0,1-4.79,2.73A5.46,5.46,0,0,1,435,57.79Z" transform="translate(-358.22 -46.99)"/><path class="cls-2" d="M451.61,60.36a2.68,2.68,0,0,0,1.91-.74L456,61.39a5.53,5.53,0,0,1-4.52,2c-3.64,0-5.89-2.42-5.89-5.53a5.42,5.42,0,0,1,5.59-5.57,5.32,5.32,0,0,1,5.42,5.53,5.51,5.51,0,0,1-.15,1.3h-7.25A2.27,2.27,0,0,0,451.61,60.36Zm1.64-3.7a1.92,1.92,0,0,0-2-1.47,2,2,0,0,0-2.06,1.47Z" transform="translate(-358.22 -46.99)"/><path class="cls-2" d="M468,56.76V63h-3.49V57.21A1.48,1.48,0,0,0,463,55.55c-1.07,0-1.72.65-1.72,1.91V63h-3.49V52.54h3.49v1.05a3.43,3.43,0,0,1,2.92-1.35C466.34,52.24,468,53.74,468,56.76Z" transform="translate(-358.22 -46.99)"/><path class="cls-2" d="M473.87,55.88v3c0,1,.78,1.05,2.19,1V63c-4.29.53-5.68-.8-5.68-4V55.88H468.8V52.54h1.58V50.65l3.49-1.05v2.94h2.19v3.34Z" transform="translate(-358.22 -46.99)"/><path class="cls-2" d="M484.28,52.33V56.2a2.53,2.53,0,0,0-3.15,2.5V63h-3.49V52.54h3.49v2A3.13,3.13,0,0,1,484.28,52.33Z" transform="translate(-358.22 -46.99)"/><path class="cls-2" d="M485.14,49.66a2,2,0,1,1,2,2A2,2,0,0,1,485.14,49.66Zm.27,2.88h3.49V63h-3.49Z" transform="translate(-358.22 -46.99)"/><path class="cls-2" d="M490,57.79A5.59,5.59,0,0,1,500.36,55l-3,1.72a2.11,2.11,0,1,0-1.83,3.26,2,2,0,0,0,1.83-1.05l3,1.72a5.39,5.39,0,0,1-4.79,2.73A5.46,5.46,0,0,1,490,57.79Z" transform="translate(-358.22 -46.99)"/><path class="cls-2" d="M412.17,64.43V79.14h-3.49v-1a3.68,3.68,0,0,1-3,1.26c-2.82,0-4.94-2.4-4.94-5.55s2.12-5.55,4.94-5.55a3.68,3.68,0,0,1,3,1.26V64.43Zm-3.49,9.46a2.21,2.21,0,1,0-2.21,2.29A2.14,2.14,0,0,0,408.68,73.89Z" transform="translate(-358.22 -46.99)"/><path class="cls-2" d="M419.28,76.45a2.68,2.68,0,0,0,1.91-.74l2.52,1.77a5.53,5.53,0,0,1-4.52,2c-3.64,0-5.89-2.42-5.89-5.53a5.42,5.42,0,0,1,5.59-5.57,5.32,5.32,0,0,1,5.42,5.53,5.51,5.51,0,0,1-.15,1.3h-7.25A2.27,2.27,0,0,0,419.28,76.45Zm1.64-3.7a1.92,1.92,0,0,0-2-1.47,2,2,0,0,0-2.06,1.47Z" transform="translate(-358.22 -46.99)"/><path class="cls-2" d="M433.93,75.91c0,2.63-2.4,3.53-4.54,3.53s-3.87-.71-4.71-2.5l3-1.53a1.59,1.59,0,0,0,1.64,1.16c.61,0,.95-.19.95-.57,0-1.09-5.13-.4-5.13-4.12,0-2.38,2.08-3.53,4.23-3.53a4.48,4.48,0,0,1,4.33,2.44L430.8,72.1a1.41,1.41,0,0,0-1.3-.9c-.48,0-.78.19-.78.5C428.71,72.86,433.93,71.91,433.93,75.91Z" transform="translate(-358.22 -46.99)"/><path class="cls-2" d="M434.87,65.75a2,2,0,1,1,2,2A2,2,0,0,1,434.87,65.75Zm.27,2.88h3.49V79.14h-3.49Z" transform="translate(-358.22 -46.99)"/><path class="cls-2" d="M451.19,68.63V78.72c0,3.51-2.77,4.94-5.53,4.94-2.29,0-4.23-.86-5.17-2.56l2.9-1.68a2.38,2.38,0,0,0,2.23,1.2,1.86,1.86,0,0,0,2.12-1.89v-1A3.61,3.61,0,0,1,444.8,79a5.35,5.35,0,0,1,0-10.68,3.61,3.61,0,0,1,2.94,1.3v-1Zm-3.45,5a2.23,2.23,0,1,0-2.23,2.19A2.12,2.12,0,0,0,447.74,73.68Z" transform="translate(-358.22 -46.99)"/><path class="cls-2" d="M463.08,72.86v6.29H459.6V73.3A1.48,1.48,0,0,0,458,71.64c-1.07,0-1.72.65-1.72,1.91v5.59h-3.49V68.63h3.49v1.05a3.43,3.43,0,0,1,2.92-1.35C461.38,68.34,463.08,69.83,463.08,72.86Z" transform="translate(-358.22 -46.99)"/></svg>